<?xml version="1.0" standalone="no"?>
<!DOCTYPE svg PUBLIC "-//W3C//DTD SVG 20010904//EN"
 "http://www.w3.org/TR/2001/REC-SVG-20010904/DTD/svg10.dtd">
<svg version="1.0" xmlns="http://www.w3.org/2000/svg"
 width="300.000000pt" height="300.000000pt" viewBox="0 0 300.000000 300.000000"
 preserveAspectRatio="xMidYMid meet">
<metadata>
Created by potrace 1.14, written by Peter Selinger 2001-2017
</metadata>
<g transform="translate(0.000000,300.000000) scale(0.100000,-0.100000)"
fill="#000000" stroke="none">
<path d="M1324 2790 c-94 -53 -190 -109 -215 -122 -24 -14 -190 -111 -369
-215 -179 -104 -352 -204 -385 -222 l-60 -33 0 -693 0 -694 265 -153 c146 -84
274 -158 285 -165 11 -7 27 -16 35 -20 8 -4 47 -26 85 -48 39 -23 90 -53 115
-67 25 -14 101 -58 170 -98 69 -40 145 -84 170 -98 25 -14 52 -30 61 -35 12
-8 69 21 250 125 129 75 380 220 559 323 179 103 343 199 366 213 l41 25 0
689 c0 688 0 689 -21 705 -26 18 -927 539 -1126 650 l-55 31 -171 -98z m224
-83 c26 -13 144 -80 263 -150 120 -69 234 -136 255 -148 22 -12 129 -73 239
-137 110 -63 213 -123 230 -132 29 -16 30 -19 33 -103 1 -48 0 -87 -4 -87 -17
0 -1221 696 -1216 702 7 7 142 78 148 78 2 0 25 -10 52 -23z m-248 -190 c36
-19 130 -72 210 -117 189 -107 173 -98 480 -275 146 -84 285 -164 310 -178 25
-14 95 -54 155 -89 l110 -63 3 -88 c1 -48 1 -87 -1 -87 -4 0 -108 59 -515 294
-151 86 -290 166 -310 178 -20 11 -62 35 -92 53 -30 18 -75 44 -100 57 -60 34
-484 280 -489 284 -8 7 155 81 164 74 6 -4 39 -23 75 -43z m-220 -185 c2 -2
-2 -7 -10 -12 -8 -6 -74 -10 -147 -10 -120 0 -167 -9 -128 -24 18 -7 20 -52 3
-60 -10 -5 -10 -7 0 -12 16 -8 15 -32 -2 -49 -13 -14 -60 -43 -157 -97 -24
-14 -80 -46 -124 -72 -44 -25 -82 -46 -86 -46 -5 0 -3 170 2 174 15 10 432
248 463 263 l38 20 72 -36 c39 -20 73 -37 76 -39z m-130 -68 c0 -26 -17 -34
-71 -34 -34 0 -39 3 -39 23 0 32 2 33 60 33 44 -1 50 -3 50 -22z m55 16 c-3
-5 -12 -10 -18 -10 -7 0 -6 4 3 10 19 12 23 12 15 0z m340 -107 c11 -6 18 -14
15 -16 -3 -3 -75 -46 -160 -95 l-155 -90 -33 30 c-32 28 -35 28 -53 12 -23
-21 -24 -42 -3 -65 16 -18 5 -26 -213 -150 -23 -13 -93 -53 -155 -89 -109 -62
-159 -90 -162 -90 -3 0 2 171 5 174 2 2 98 59 214 126 201 118 272 148 261
111 -3 -9 -1 -23 4 -31 9 -13 12 -13 25 3 7 11 12 24 9 31 -3 8 8 12 31 12 19
0 35 -5 35 -12 0 -6 8 -19 19 -28 17 -15 19 -16 25 -1 7 19 -1 38 -14 30 -5
-3 -11 -2 -14 3 -2 4 26 7 62 7 63 0 67 1 70 24 2 13 -2 27 -9 32 -19 11 -22
49 -4 49 14 0 14 3 0 24 -16 24 -15 25 26 49 l42 25 56 -31 c31 -18 65 -37 76
-44z m-475 27 c-19 -13 -30 -13 -30 0 0 6 10 10 23 10 18 0 19 -2 7 -10z m233
-63 c10 -26 -8 -35 -63 -32 -30 1 -57 3 -60 4 -3 1 9 10 25 21 34 23 90 26 98
7z m472 -94 c41 -21 75 -40 75 -43 -1 -6 -376 -224 -393 -228 -7 -1 -36 22
-65 52 l-52 54 147 85 c134 77 204 116 210 117 2 0 37 -17 78 -37z m406 -234
c107 -61 205 -118 218 -126 l23 -15 -23 -12 c-13 -7 -47 -27 -76 -45 l-52 -32
-215 128 c-119 70 -216 130 -216 133 0 6 130 79 141 80 3 0 93 -50 200 -111z
m-805 -87 c-2 -2 -123 -73 -267 -157 l-263 -154 -46 26 c-25 14 -59 36 -77 48
l-32 21 102 58 c56 31 109 61 117 67 8 5 92 54 185 108 l170 98 57 -55 c32
-31 56 -58 54 -60z m367 22 c37 -20 305 -176 360 -211 l38 -24 -80 -49 -81
-49 -48 28 c-26 15 -68 40 -93 53 -173 99 -210 122 -244 153 -35 30 -37 35
-20 41 10 4 43 22 73 41 31 18 57 33 59 33 2 0 18 -7 36 -16z m-238 -200 c60
-33 109 -73 180 -144 l97 -97 -36 -22 -36 -23 -87 49 c-88 49 -103 57 -183
104 -25 15 -67 39 -95 54 -86 47 -87 49 -9 89 38 19 73 35 78 36 5 0 46 -21
91 -46z m1124 5 c40 -23 69 -44 65 -49 -5 -4 -96 -58 -203 -119 l-194 -111
-98 0 c-91 0 -100 -2 -112 -22 -8 -13 -15 -43 -16 -68 -1 -24 -3 -45 -4 -45
-1 -1 -55 -31 -120 -68 -116 -67 -133 -74 -123 -59 2 4 1 14 -3 21 -6 9 -36
13 -105 13 -105 -1 -116 -4 -116 -33 0 -21 1 -21 108 -21 39 0 72 -4 72 -8 0
-15 -163 -8 -197 7 -18 9 -33 18 -33 22 0 11 98 62 103 54 3 -5 29 -8 59 -8
l53 0 3 40 c2 22 8 45 14 50 7 7 9 7 5 0 -3 -6 -2 -17 2 -24 6 -9 16 -8 42 8
19 11 55 32 80 45 59 32 81 54 74 75 -4 13 48 47 243 160 136 79 261 152 277
162 17 10 35 19 40 19 6 0 43 -19 84 -41z m-1446 -140 c23 -12 101 -56 172
-97 72 -42 151 -87 177 -102 l46 -26 -26 -15 c-15 -8 -52 -29 -83 -47 l-55
-31 -210 120 c-115 66 -213 124 -218 129 -7 7 127 90 147 90 4 0 27 -10 50
-21z m147 -429 c0 -4 -40 -7 -90 -7 -87 1 -89 1 -84 22 5 20 2 21 -35 20 -48
-2 -58 -9 -42 -29 32 -39 -52 -1 -246 110 l-208 119 1 70 c1 39 2 77 3 86 1
12 94 -37 351 -184 193 -110 350 -203 350 -207z m1440 322 l0 -88 -161 -92
c-126 -72 -160 -88 -156 -72 4 15 0 20 -13 20 -22 0 -27 7 -34 41 -2 13 -7 31
-11 40 -3 10 -2 20 4 23 5 3 12 -8 16 -26 12 -62 15 -66 36 -61 14 4 18 11 14
22 -4 9 -9 34 -11 57 l-5 41 158 91 c87 50 159 92 161 92 1 0 2 -40 2 -88z
m-604 -84 c7 -10 -41 -58 -58 -58 -5 0 -8 16 -8 35 0 32 2 35 29 35 17 0 33
-5 37 -12z m202 -105 l-3 -37 -62 -1 c-35 0 -63 2 -63 5 0 8 103 69 118 70 9
0 12 -11 10 -37z m-1495 -184 c24 -13 37 -26 37 -39 0 -16 7 -20 33 -21 17 0
46 -8 62 -18 23 -14 29 -24 27 -44 -2 -19 1 -27 12 -27 10 0 16 9 17 23 1 16
2 18 6 5 2 -10 10 -19 16 -20 7 0 17 -2 23 -2 15 -2 174 -89 174 -96 0 -3 -34
-24 -75 -48 l-74 -43 -83 45 c-46 25 -77 46 -70 46 8 0 12 23 12 79 0 63 -3
80 -16 85 -26 10 -31 -1 -31 -69 0 -36 -2 -67 -5 -70 -5 -6 -300 161 -308 175
-4 7 -5 99 -1 162 1 13 22 4 104 -44 56 -33 119 -69 140 -79z m1895 44 l-3
-88 -534 -307 -534 -308 -73 42 c-41 24 -74 46 -74 49 0 3 127 79 283 168 213
121 291 161 317 161 35 0 80 32 80 57 0 12 5 14 37 17 7 1 19 10 27 21 14 19
15 16 16 -37 0 -55 1 -58 24 -58 24 0 24 2 22 66 -1 36 2 68 6 70 4 3 8 -6 8
-20 0 -14 5 -26 10 -26 11 0 13 12 10 48 -1 12 3 22 9 22 5 0 9 -19 8 -42 -2
-43 -2 -43 36 -46 l37 -3 0 50 c0 52 -3 55 -45 52 -11 -1 14 18 55 42 222 131
266 155 273 156 4 1 6 -38 5 -86z m-565 -24 c62 0 104 -4 94 -8 -10 -3 -73 -6
-140 -5 -138 3 -158 0 -154 -24 6 -36 16 -41 92 -38 43 2 72 0 69 -6 -3 -5
-13 -8 -22 -7 -35 3 -45 -2 -78 -38 l-33 -36 5 28 c3 16 7 32 10 37 3 4 1 8
-5 8 -17 0 -28 -22 -30 -64 -1 -16 -12 -29 -33 -40 -18 -10 -60 -33 -93 -53
-33 -19 -78 -45 -100 -58 -22 -12 -115 -66 -206 -119 l-167 -97 -71 43 c-39
24 -71 46 -71 50 0 4 28 23 62 43 35 19 70 39 78 44 8 5 76 45 150 87 l135 78
90 2 c50 2 93 3 98 3 4 1 8 27 9 59 l2 57 3 -52 c4 -55 3 -54 58 -57 35 -2 41
10 38 83 l-3 71 38 24 c36 22 37 23 50 5 11 -17 28 -19 125 -20z m-835 -5 c-9
-9 -78 -10 -78 -1 0 5 9 7 20 4 11 -3 20 -1 20 3 0 4 9 6 20 3 12 -3 19 -7 18
-9z m37 -4 c3 -5 2 -10 -4 -10 -5 0 -13 5 -16 10 -3 6 -2 10 4 10 5 0 13 -4
16 -10z m-125 -5 c0 -1 -19 -15 -42 -30 -31 -21 -39 -23 -34 -10 9 23 -2 39
-19 25 -9 -7 -20 -6 -39 4 -25 13 -22 14 53 13 45 0 81 -1 81 -2z m433 -2 c-7
-2 -19 -2 -25 0 -7 3 -2 5 12 5 14 0 19 -2 13 -5z m-248 -25 c19 -13 39 -36
45 -52 12 -36 12 -36 0 -36 -5 0 -10 7 -10 15 0 8 -18 33 -40 55 -46 46 -44
50 5 18z m-82 -17 c38 -15 79 -60 75 -84 -4 -27 -28 -35 -28 -9 0 25 -54 72
-83 72 -12 0 -34 -6 -48 -14 -34 -17 -57 -6 -32 16 33 28 74 35 116 19z m-15
-77 c33 -23 27 -37 -8 -19 -16 9 -30 20 -30 25 0 14 12 12 38 -6z"/>
<path d="M1652 1108 c-26 -34 -29 -44 -20 -61 10 -19 11 -19 20 -3 6 10 11 24
12 30 1 7 9 25 19 39 28 43 3 39 -31 -5z"/>
</g>
</svg>
