<?xml version="1.0" standalone="no"?>
<!DOCTYPE svg PUBLIC "-//W3C//DTD SVG 20010904//EN"
 "http://www.w3.org/TR/2001/REC-SVG-20010904/DTD/svg10.dtd">
<svg version="1.0" xmlns="http://www.w3.org/2000/svg"
 width="300.000000pt" height="300.000000pt" viewBox="0 0 300.000000 300.000000"
 preserveAspectRatio="xMidYMid meet">
<metadata>
Created by potrace 1.14, written by Peter Selinger 2001-2017
</metadata>
<g transform="translate(0.000000,300.000000) scale(0.100000,-0.100000)"
fill="#000000" stroke="none">
<path d="M1421 2844 c-40 -24 -75 -44 -76 -44 -2 0 -58 -31 -126 -70 -67 -38
-124 -70 -126 -70 -2 0 -22 -12 -46 -27 -23 -15 -51 -32 -62 -38 -18 -10 -521
-301 -640 -371 l-51 -29 1 -692 0 -692 369 -213 c203 -117 390 -225 415 -239
25 -14 102 -59 171 -99 69 -40 145 -84 170 -98 25 -14 52 -30 62 -35 12 -8 37
2 110 44 102 61 210 123 698 404 179 103 343 199 366 213 l41 25 0 686 c0 425
-3 691 -9 698 -6 7 -40 29 -76 49 -37 21 -202 116 -367 212 -165 96 -313 182
-330 192 -22 12 -360 204 -415 236 -3 1 -39 -17 -79 -42z m127 -137 c26 -13
101 -55 167 -94 66 -39 239 -139 385 -223 361 -208 422 -243 445 -255 17 -9
20 -22 23 -98 1 -48 0 -87 -4 -87 -17 0 -1222 696 -1216 702 7 7 142 78 148
78 2 0 25 -10 52 -23z m-248 -190 c36 -19 130 -72 210 -117 189 -107 173 -98
480 -275 146 -84 285 -164 310 -178 25 -14 95 -54 155 -89 l110 -63 3 -88 c1
-48 1 -87 -1 -87 -4 0 -108 59 -515 294 -151 86 -288 165 -305 175 -75 43
-682 394 -686 397 -8 7 155 81 164 74 6 -4 39 -23 75 -43z m-221 -188 c1 -4
-358 -217 -464 -275 -11 -6 -56 -32 -100 -58 -44 -25 -82 -46 -86 -46 -5 0 -3
170 2 174 15 10 432 248 462 263 l39 19 73 -35 c41 -20 74 -38 74 -42z m266
-156 c11 -6 17 -14 15 -17 -3 -3 -147 -86 -320 -185 -173 -100 -322 -185 -330
-190 -35 -22 -280 -161 -284 -161 0 0 -1 39 0 87 1 63 5 90 15 95 49 30 378
220 558 324 l213 123 57 -32 c31 -18 65 -37 76 -44z m230 -130 c41 -21 75 -40
74 -43 0 -3 -226 -136 -502 -297 l-502 -292 -45 26 c-25 14 -59 36 -77 48
l-32 21 102 58 c56 31 118 67 137 78 266 156 757 436 767 438 2 0 37 -17 78
-37z m406 -234 c107 -61 205 -118 218 -126 l23 -15 -23 -12 c-13 -7 -47 -27
-76 -45 l-52 -32 -215 128 c-119 70 -216 130 -216 133 0 6 130 79 141 80 3 0
93 -50 200 -111z m-265 -165 c109 -64 205 -121 211 -126 9 -8 -9 -23 -67 -59
l-80 -48 -58 33 c-67 40 -99 58 -261 150 l-121 70 82 48 c46 26 85 48 89 48 3
0 95 -52 205 -116z m-346 -137 c255 -146 279 -161 275 -166 -2 -3 -21 -15 -42
-26 -21 -11 -40 -22 -43 -25 -3 -3 -15 -11 -28 -18 -25 -14 -52 -1 -292 139
-25 15 -67 39 -95 54 -86 47 -87 49 -9 89 38 19 74 35 79 36 6 0 75 -37 155
-83z m1058 43 c39 -23 72 -42 72 -45 0 -2 -46 -30 -102 -62 -57 -33 -242 -140
-413 -238 -170 -98 -348 -200 -394 -227 -46 -26 -88 -48 -93 -48 -13 0 -148
72 -148 79 0 3 120 76 266 161 146 85 368 214 493 287 124 73 231 132 236 132
6 1 43 -17 83 -39z m-1445 -141 c23 -12 101 -56 172 -97 72 -42 151 -87 177
-102 l46 -26 -26 -15 c-15 -8 -52 -29 -83 -47 l-55 -31 -210 120 c-115 66
-213 124 -218 129 -7 7 127 90 147 90 4 0 27 -10 50 -21z m234 -473 c79 -44
143 -84 143 -87 0 -3 -33 -24 -73 -45 l-73 -40 -395 225 -394 226 1 70 c1 39
2 77 3 87 1 12 84 -31 324 -169 177 -102 386 -222 464 -267z m1353 366 l0 -87
-371 -215 c-205 -118 -393 -227 -418 -242 -25 -15 -80 -46 -121 -69 -41 -24
-87 -50 -101 -59 -15 -8 -99 -57 -187 -108 l-160 -93 -71 43 c-39 24 -71 46
-71 50 0 4 28 23 63 43 34 19 69 40 77 45 8 5 29 17 45 26 17 9 194 111 395
227 201 115 383 220 405 233 22 12 146 83 275 158 129 75 236 136 238 136 1 0
2 -39 2 -88z m-2070 -275 c25 -13 119 -68 210 -121 91 -53 211 -122 267 -154
57 -31 103 -59 103 -62 0 -3 -34 -25 -76 -49 l-75 -43 -240 138 c-133 75 -246
143 -252 149 -7 7 -11 40 -11 81 3 109 3 108 17 97 6 -6 32 -22 57 -36z m2068
-54 l-3 -88 -534 -307 -534 -308 -73 42 c-41 24 -73 46 -71 50 2 8 1196 696
1210 697 4 1 6 -38 5 -86z"/>
</g>
</svg>
